<svg width="210" height="190" viewBox="0 0 210 190" fill="none" xmlns="http://www.w3.org/2000/svg">
<path opacity="0.16" d="M132.492 167.866L132.164 167.192L132.492 167.866ZM33.4719 113.84C33.5554 113.435 33.2942 113.038 32.8884 112.954L26.2769 111.594C25.8712 111.511 25.4747 111.772 25.3912 112.178C25.3077 112.583 25.5689 112.98 25.9746 113.063L31.8515 114.273L30.6424 120.149C30.5589 120.555 30.8201 120.952 31.2258 121.035C31.6316 121.119 32.0281 120.857 32.1116 120.452L33.4719 113.84ZM140.238 61.4578C139.876 61.6586 139.745 62.1151 139.946 62.4774C140.147 62.8396 140.603 62.9704 140.965 62.7696L140.238 61.4578ZM132.164 167.192C105.408 180.216 81.1914 186.399 61.0942 187.601C40.9834 188.804 25.0542 185.017 14.8101 178.172C4.60122 171.351 0.0381989 161.511 2.49092 150.394C4.96002 139.204 14.5741 126.552 33.1499 114.315L32.3247 113.063C13.5984 125.398 3.6158 138.334 1.02615 150.071C-1.57986 161.882 3.33626 172.31 13.9767 179.42C24.582 186.506 40.8724 190.314 61.1838 189.099C81.5088 187.883 105.917 181.636 132.821 168.541L132.164 167.192ZM140.965 62.7696C162.486 50.8365 179.261 48.2993 190.651 51.8C201.96 55.2757 208.149 64.7668 208.438 77.4546C209.017 102.935 185.693 141.137 132.164 167.192L132.821 168.541C186.611 142.358 210.536 103.733 209.937 77.4205C209.637 64.2123 203.13 54.0661 191.092 50.3662C179.135 46.6912 161.911 49.44 140.238 61.4578L140.965 62.7696Z" fill="white"/>
<path d="M135.482 0.939056C123.365 42.0938 80.1802 65.6339 39.0254 53.5173C80.1802 65.6339 103.72 108.819 91.6037 149.974C103.72 108.819 146.905 85.2788 188.06 97.3954C146.905 85.2788 123.365 42.0938 135.482 0.939056Z" fill="#2F80ED"/>
<path d="M100.227 72.5734L105.326 82.9638L130.65 68.963" stroke="white" stroke-width="6.37983"/>
</svg>
