<svg width="20" height="20" viewBox="0 0 20 20" fill="none" xmlns="http://www.w3.org/2000/svg">
<g opacity="0.25">
<path d="M10.5069 4.24009C10.2944 3.93687 9.70965 3.88495 9.53994 4.29446L9.73305 4.63883C9.53468 4.68047 9.34914 4.76767 9.19154 4.89334C9.03395 5.01901 8.90877 5.17957 8.82623 5.36192C8.74369 5.54427 8.70612 5.74324 8.71659 5.9426C8.72706 6.14197 8.78528 6.33607 8.88648 6.50907H11.1146C11.2157 6.33636 11.274 6.14258 11.2846 5.94352C11.2953 5.74446 11.258 5.54573 11.1759 5.36352C11.0938 5.1813 10.9691 5.02074 10.8121 4.89489C10.655 4.76905 10.47 4.68149 10.272 4.63932L10.5069 4.24009Z" fill="white"/>
<path d="M5.77047 10.5356L4.26796 10.5582C4.26796 10.5582 3.47066 10.155 3.58314 9.17532C3.79018 9.17385 5.10257 9.27868 5.46141 9.30758L5.47684 9.30856C5.46738 9.19492 5.46041 9.0798 5.45743 8.96077L4.18036 8.1971C4.18036 8.1971 3.75136 6.68493 4.39039 5.96632C4.57553 6.12062 6.89076 8.31466 7.40537 8.81332C6.87384 9.28897 7.07042 10.4122 7.97322 10.4122C9.22839 10.4122 9.17115 8.60269 7.99263 8.60269C7.9135 8.60269 7.77166 8.62669 7.77166 8.62669L7.14408 7.14196H9.6793L9.44289 7.6465L10.0063 8.83439L10.5697 7.6465L10.3223 7.14196H12.8933L12.2449 8.62767C12.2449 8.62767 12.1015 8.60269 12.0209 8.60269C10.8409 8.60269 10.7857 10.4122 12.0403 10.4122C12.9436 10.4122 13.1397 9.29044 12.6082 8.81332C13.1203 8.31074 15.437 6.11671 15.6207 5.9624C16.2025 6.61194 15.6874 8.28135 15.6874 8.28135L14.5551 8.95489C14.5521 9.07441 14.5452 9.191 14.5352 9.30317L14.5511 9.3017L14.6016 9.29771C15.0189 9.26463 16.2311 9.16853 16.4294 9.16993C16.3971 9.92234 15.55 10.6184 15.55 10.6184L14.2391 10.541C14.1834 10.665 14.1221 10.7825 14.051 10.8952C14.5009 11.1043 15.4704 11.5633 15.6306 11.6936C15.2658 12.328 14.267 12.3912 14.267 12.3912L13.2203 11.7191C13.1103 11.7892 12.9909 11.8553 12.8645 11.917C13.0715 12.1894 13.5667 12.8389 13.727 12.9908C13.1273 13.2548 12.3439 13.1578 12.3439 13.1578L11.9179 12.2452C11.7551 12.2849 11.5829 12.3197 11.4018 12.3491C11.4257 13.2798 12.2006 14.3481 12.6097 14.8537C12.2979 15.248 11.8861 15.5545 11.4157 15.7422L10.6478 13.7696L10.3233 13.8539C10.3233 13.8539 10.4875 15.3264 10.6493 15.9539C10.18 16.0283 9.68875 16.0131 9.21445 15.9049C9.42995 15.151 9.57329 13.8215 9.57329 13.8215L9.22291 13.7696L8.38382 15.61C7.95836 15.3994 7.58209 15.104 7.27896 14.7425C7.72439 14.1978 8.54805 13.1323 8.59782 12.3491C8.42114 12.3197 8.25293 12.2859 8.09317 12.2467L7.55716 13.1931C7.55716 13.1931 6.68323 13.3782 6.22984 13.0172C6.40801 12.811 6.92709 12.182 7.14408 11.917C7.01866 11.8568 6.90171 11.7906 6.79172 11.7206L5.7625 12.3731C5.7625 12.3731 4.74922 12.4784 4.38342 11.6966C4.54218 11.5658 5.51317 11.1068 5.96258 10.8976C5.89041 10.784 5.82621 10.6635 5.77047 10.5356Z" fill="white"/>
<path d="M9.96496 7.14147L10.0008 7.14196L10.0361 7.14147H9.96496Z" fill="white"/>
</g>
</svg>
