<svg width="18" height="16" viewBox="0 0 18 16" fill="none" xmlns="http://www.w3.org/2000/svg">
<path d="M7.33268 11.3333V10.5H1.49935V13.8333C1.49935 14.7583 2.24102 15.5 3.16602 15.5H14.8327C15.7577 15.5 16.4993 14.7583 16.4993 13.8333V10.5H10.666V11.3333H7.33268ZM15.666 3.83333H12.3327V2.16667L10.666 0.5H7.33268L5.66602 2.16667V3.83333H2.33268C1.41602 3.83333 0.666016 4.58333 0.666016 5.5V8C0.666016 8.925 1.40768 9.66667 2.33268 9.66667H7.33268V8H10.666V9.66667H15.666C16.5827 9.66667 17.3327 8.91667 17.3327 8V5.5C17.3327 4.58333 16.5827 3.83333 15.666 3.83333ZM10.666 3.83333H7.33268V2.16667H10.666V3.83333Z" fill="white"/>
</svg>
