<svg width="38" height="29" viewBox="0 0 38 29" fill="none" xmlns="http://www.w3.org/2000/svg">
<path d="M17.6535 1.37369C18.1504 0.15869 19.8548 0.312443 20.4754 1.21244L18.9848 3.78306L17.6535 1.37369Z" fill="#1E2024"/>
<path d="M2.27665 19.9343L6.6604 19.8687C6.81878 20.24 7.00558 20.5986 7.21915 20.9412C5.90852 21.5618 3.07541 22.9212 2.61416 23.3074C3.68103 25.6249 6.63603 25.3137 6.63603 25.3137L9.6379 23.3787C9.96839 23.5929 10.3115 23.787 10.6654 23.9599C10.0317 24.7474 8.51853 26.6112 7.99915 27.2224C9.32102 28.2912 11.871 27.7418 11.871 27.7418L13.4329 24.9387C13.8998 25.0549 14.391 25.1562 14.9048 25.2424C14.8429 26.2549 14.3498 27.4268 13.7048 28.5612H23.9854C23.4791 27.4737 23.1116 26.3281 23.0854 25.2424C23.5916 25.1599 24.0923 25.0568 24.591 24.9349L25.8323 27.6387C25.8323 27.6387 28.1179 27.9256 29.8673 27.1437C29.4076 26.7024 28.0102 24.842 27.3852 24.0098L27.3491 23.9618C27.7073 23.7874 28.0541 23.5906 28.3898 23.3749L31.4404 25.3681C31.4404 25.3681 34.3541 25.1806 35.4191 23.2999C34.9523 22.9137 32.1229 21.5524 30.8123 20.9337C31.0204 20.5981 31.2023 20.2474 31.3579 19.8856L35.1829 20.1124C35.1829 20.1124 37.6541 18.0499 37.7479 15.8187C37.1441 15.8168 33.3173 16.1262 32.2691 16.2124L32.2241 16.2162C32.2536 15.8731 32.2723 15.5292 32.2804 15.1849L35.5841 13.1881C35.5841 13.1881 37.086 8.24182 35.3891 6.31619C34.8529 6.77369 28.0973 13.2743 26.6029 14.7649C28.1535 16.1787 27.5816 19.5031 24.9473 19.5031C21.2873 19.5031 21.4485 14.1406 24.891 14.1406C25.1254 14.1406 25.5417 14.2156 25.5417 14.2156L27.4354 9.81119H19.9354L20.6573 11.3074L19.0148 14.8268L17.3704 11.3074L18.0604 9.81119H10.6654L12.4954 14.2099C12.4954 14.2099 12.9098 14.1387 13.1404 14.1387C16.5791 14.1387 16.746 19.5012 13.0842 19.5012C10.4498 19.5012 9.8779 16.1749 11.4267 14.7649C9.92665 13.2874 3.1729 6.78494 2.6329 6.32744C0.771028 8.45556 2.02165 12.9368 2.02165 12.9368L5.74727 15.2018C5.75552 15.5461 5.77428 15.89 5.80353 16.2331L5.75478 16.2293C4.7104 16.1431 0.883526 15.8337 0.279776 15.8374C-0.0483491 18.7399 2.27665 19.9343 2.27665 19.9343Z" fill="#1E2024"/>
<path d="M22.748 6.06136C22.7483 6.71948 22.5753 7.36607 22.2465 7.93617H15.7496C15.4208 7.36607 15.2478 6.71948 15.248 6.06136C15.2483 5.40324 15.4217 4.75677 15.7509 4.1869C16.0801 3.61702 16.5534 3.14382 17.1234 2.81482C17.6934 2.48583 18.3399 2.31263 18.998 2.31263C19.6562 2.31263 20.3027 2.48583 20.8727 2.81482C21.4427 3.14382 21.916 3.61702 22.2452 4.1869C22.5744 4.75677 22.7478 5.40324 22.748 6.06136Z" fill="#1E2024"/>
</svg>
