<svg width="56" height="56" viewBox="0 0 56 56" fill="none" xmlns="http://www.w3.org/2000/svg">
<path d="M28 40.6C31.5 40.6 34.475 39.375 36.925 36.925C39.375 34.475 40.6 31.5 40.6 28C40.6 24.5 39.375 21.525 36.925 19.075C34.475 16.625 31.5 15.4 28 15.4V28L19.075 36.925C20.3 38.08 21.6741 38.9816 23.1973 39.6298C24.7205 40.278 26.3214 40.6014 28 40.6ZM28 49C25.095 49 22.365 48.4484 19.81 47.3452C17.255 46.242 15.0325 44.7461 13.1425 42.8575C11.2525 40.9675 9.7566 38.745 8.6548 36.19C7.553 33.635 7.0014 30.905 7 28C7 25.095 7.5516 22.365 8.6548 19.81C9.758 17.255 11.2539 15.0325 13.1425 13.1425C15.0325 11.2525 17.255 9.7566 19.81 8.6548C22.365 7.553 25.095 7.0014 28 7C30.905 7 33.635 7.5516 36.19 8.6548C38.745 9.758 40.9675 11.2539 42.8575 13.1425C44.7475 15.0325 46.2441 17.255 47.3473 19.81C48.4505 22.365 49.0014 25.095 49 28C49 30.905 48.4484 33.635 47.3452 36.19C46.242 38.745 44.7461 40.9675 42.8575 42.8575C40.9675 44.7475 38.745 46.2441 36.19 47.3473C33.635 48.4505 30.905 49.0014 28 49ZM28 44.8C32.69 44.8 36.6625 43.1725 39.9175 39.9175C43.1725 36.6625 44.8 32.69 44.8 28C44.8 23.31 43.1725 19.3375 39.9175 16.0825C36.6625 12.8275 32.69 11.2 28 11.2C23.31 11.2 19.3375 12.8275 16.0825 16.0825C12.8275 19.3375 11.2 23.31 11.2 28C11.2 32.69 12.8275 36.6625 16.0825 39.9175C19.3375 43.1725 23.31 44.8 28 44.8Z" fill="#1E2024"/>
</svg>
