<svg width="56" height="56" viewBox="0 0 56 56" fill="none" xmlns="http://www.w3.org/2000/svg">
<path d="M27.9902 15.3732C21.0165 15.3732 15.3633 21.0264 15.3633 28C15.3633 34.9737 21.0165 40.6269 27.9902 40.6269C34.9638 40.6269 40.6165 34.9737 40.6165 28C40.6165 21.0264 34.9633 15.3732 27.9902 15.3732ZM27.9902 35.0605C24.0903 35.0605 20.9291 31.8993 20.9291 28C20.9291 24.1002 24.0903 20.939 27.9902 20.939C31.89 20.939 35.0506 24.1002 35.0506 28C35.0506 31.8993 31.8894 35.0605 27.9902 35.0605Z" fill="#1E2024"/>
<path d="M28 7C16.4013 7 7 16.4041 7 28.0011C7 39.5987 16.4013 49 28 49C39.5987 49 49 39.5987 49 28.0011C49 16.4041 39.5987 7 28 7ZM28 43.4342C19.4886 43.4342 12.5664 36.5114 12.5664 28.0011C12.5664 19.4919 19.4891 12.5664 28 12.5664C36.5109 12.5664 43.4336 19.4919 43.4336 28.0011C43.4336 36.5109 36.5109 43.4342 28 43.4342Z" fill="#1E2024"/>
<path d="M27.9904 32.2678C30.3474 32.2678 32.2582 30.3571 32.2582 28.0001C32.2582 25.643 30.3474 23.7323 27.9904 23.7323C25.6334 23.7323 23.7227 25.643 23.7227 28.0001C23.7227 30.3571 25.6334 32.2678 27.9904 32.2678Z" fill="#1E2024"/>
</svg>
