<svg width="30" height="30" viewBox="0 0 30 30" fill="none" xmlns="http://www.w3.org/2000/svg">
<path d="M0 23.748V26.25C0 28.3184 5.03906 30 11.25 30C17.4609 30 22.5 28.3184 22.5 26.25V23.748C20.0801 25.4531 15.6562 26.25 11.25 26.25C6.84375 26.25 2.41992 25.4531 0 23.748ZM18.75 7.5C24.9609 7.5 30 5.81836 30 3.75C30 1.68164 24.9609 0 18.75 0C12.5391 0 7.5 1.68164 7.5 3.75C7.5 5.81836 12.5391 7.5 18.75 7.5ZM0 17.6016V20.625C0 22.6934 5.03906 24.375 11.25 24.375C17.4609 24.375 22.5 22.6934 22.5 20.625V17.6016C20.0801 19.5938 15.6504 20.625 11.25 20.625C6.84961 20.625 2.41992 19.5938 0 17.6016ZM24.375 18.2461C27.7324 17.5957 30 16.3887 30 15V12.498C28.6406 13.459 26.6426 14.1152 24.375 14.5195V18.2461ZM11.25 9.375C5.03906 9.375 0 11.4727 0 14.0625C0 16.6523 5.03906 18.75 11.25 18.75C17.4609 18.75 22.5 16.6523 22.5 14.0625C22.5 11.4727 17.4609 9.375 11.25 9.375ZM24.0996 12.6738C27.6152 12.041 30 10.7988 30 9.375V6.87305C27.9199 8.34375 24.3457 9.13477 20.584 9.32227C22.3125 10.1602 23.584 11.2852 24.0996 12.6738Z" fill="#1E2024"/>
</svg>
