<svg width="16" height="16" viewBox="0 0 16 16" fill="none" xmlns="http://www.w3.org/2000/svg">
<path d="M8 14C11.3 14 14 11.3 14 8C14 4.7 11.3 2 8 2C4.7 2 2 4.7 2 8C2 11.3 4.7 14 8 14ZM8.18 5.174C8.3 5.066 8.444 5 8.6 5C8.762 5 8.9 5.066 9.026 5.174C9.14 5.3 9.2 5.444 9.2 5.6C9.2 5.762 9.14 5.9 9.026 6.026C8.9 6.14 8.762 6.2 8.6 6.2C8.444 6.2 8.3 6.14 8.18 6.026C8.066 5.9 8 5.762 8 5.6C8 5.444 8.066 5.3 8.18 5.174ZM6.68 7.982C6.68 7.982 7.982 6.95 8.456 6.908C8.9 6.872 8.81 7.382 8.768 7.646L8.762 7.682C8.678 8 8.576 8.384 8.474 8.75C8.246 9.584 8.024 10.4 8.078 10.55C8.138 10.754 8.51 10.496 8.78 10.316C8.816 10.292 8.846 10.268 8.876 10.25C8.876 10.25 8.924 10.202 8.972 10.268C8.984 10.286 8.996 10.304 9.008 10.316C9.062 10.4 9.092 10.43 9.02 10.478L8.996 10.49C8.864 10.58 8.3 10.976 8.072 11.12C7.826 11.282 6.884 11.822 7.028 10.772C7.154 10.034 7.322 9.398 7.454 8.9C7.7 8 7.808 7.592 7.256 7.946C7.034 8.078 6.902 8.162 6.824 8.216C6.758 8.264 6.752 8.264 6.71 8.186L6.692 8.15L6.662 8.102C6.62 8.042 6.62 8.036 6.68 7.982Z" fill="#81B6DD"/>
</svg>
