<svg width="16" height="16" viewBox="0 0 16 16" fill="none" xmlns="http://www.w3.org/2000/svg">
<path d="M8.00065 13.3334C9.41514 13.3334 10.7717 12.7715 11.7719 11.7713C12.7721 10.7711 13.334 9.41453 13.334 8.00004C13.334 6.58555 12.7721 5.229 11.7719 4.2288C10.7717 3.22861 9.41514 2.66671 8.00065 2.66671C6.58616 2.66671 5.22961 3.22861 4.22942 4.2288C3.22922 5.229 2.66732 6.58555 2.66732 8.00004C2.66732 9.41453 3.22922 10.7711 4.22942 11.7713C5.22961 12.7715 6.58616 13.3334 8.00065 13.3334ZM8.00065 1.33337C8.87613 1.33337 9.74304 1.50581 10.5519 1.84084C11.3607 2.17588 12.0956 2.66694 12.7147 3.286C13.3338 3.90505 13.8248 4.63998 14.1598 5.44882C14.4949 6.25765 14.6673 7.12456 14.6673 8.00004C14.6673 9.76815 13.9649 11.4638 12.7147 12.7141C11.4645 13.9643 9.76876 14.6667 8.00065 14.6667C4.31398 14.6667 1.33398 11.6667 1.33398 8.00004C1.33398 6.23193 2.03636 4.53624 3.28661 3.286C4.53685 2.03575 6.23254 1.33337 8.00065 1.33337ZM8.33398 4.66671V8.16671L11.334 9.94671L10.834 10.7667L7.33398 8.66671V4.66671H8.33398Z" fill="#E76014"/>
</svg>
