<svg width="72" height="72" viewBox="0 0 72 72" fill="none" xmlns="http://www.w3.org/2000/svg">
<path fill-rule="evenodd" clip-rule="evenodd" d="M8 36C8 20.5356 20.5356 8 36 8C51.4644 8 64 20.5356 64 36C64 51.4644 51.4644 64 36 64C20.5356 64 8 51.4644 8 36ZM33.9 16.4C33.9 15.843 34.1213 15.3089 34.5151 14.9151C34.9089 14.5212 35.443 14.3 36 14.3C40.2919 14.3 44.4873 15.5727 48.0559 17.9571C51.6244 20.3415 54.4058 23.7306 56.0482 27.6958C57.6906 31.6609 58.1203 36.0241 57.283 40.2335C56.4457 44.4428 54.379 48.3094 51.3442 51.3442C48.3094 54.379 44.4428 56.4457 40.2335 57.283C36.0241 58.1203 31.6609 57.6906 27.6958 56.0482C23.7306 54.4058 20.3415 51.6244 17.9571 48.0559C15.5727 44.4873 14.3 40.2919 14.3 36C14.3 35.443 14.5212 34.9089 14.9151 34.5151C15.3089 34.1213 15.843 33.9 16.4 33.9C16.957 33.9 17.4911 34.1213 17.8849 34.5151C18.2788 34.9089 18.5 35.443 18.5 36C18.5 39.4612 19.5264 42.8446 21.4493 45.7225C23.3722 48.6003 26.1053 50.8434 29.303 52.1679C32.5007 53.4924 36.0194 53.839 39.4141 53.1637C42.8087 52.4885 45.927 50.8218 48.3744 48.3744C50.8218 45.927 52.4885 42.8087 53.1637 39.4141C53.839 36.0194 53.4924 32.5007 52.1679 29.303C50.8434 26.1053 48.6003 23.3722 45.7225 21.4493C42.8446 19.5264 39.4612 18.5 36 18.5C35.443 18.5 34.9089 18.2788 34.5151 17.8849C34.1213 17.4911 33.9 16.957 33.9 16.4ZM36 22.7C35.443 22.7 34.9089 22.9212 34.5151 23.3151C34.1213 23.7089 33.9 24.243 33.9 24.8C33.9 25.357 34.1213 25.8911 34.5151 26.2849C34.9089 26.6787 35.443 26.9 36 26.9C38.4135 26.9 40.7281 27.8587 42.4347 29.5653C44.1413 31.2719 45.1 33.5865 45.1 36C45.1 38.4135 44.1413 40.7281 42.4347 42.4347C40.7281 44.1413 38.4135 45.1 36 45.1C35.443 45.1 34.9089 45.3213 34.5151 45.7151C34.1213 46.1089 33.9 46.643 33.9 47.2C33.9 47.757 34.1213 48.2911 34.5151 48.6849C34.9089 49.0788 35.443 49.3 36 49.3C39.5274 49.3 42.9103 47.8988 45.4045 45.4045C47.8988 42.9103 49.3 39.5274 49.3 36C49.3 32.4726 47.8988 29.0897 45.4045 26.5955C42.9103 24.1012 39.5274 22.7 36 22.7Z" fill="#2D2F33"/>
</svg>
