<svg width="72" height="72" viewBox="0 0 72 72" fill="none" xmlns="http://www.w3.org/2000/svg">
<path fill-rule="evenodd" clip-rule="evenodd" d="M35.4879 56C35.8195 55.0617 36 54.0519 36 53C36 51.9481 35.8195 50.9383 35.4879 50H62V56H35.4879ZM18.5121 56H10V50H18.5121C18.1805 50.9383 18 51.9481 18 53C18 54.0519 18.1805 55.0617 18.5121 56Z" fill="#2D2F33"/>
<circle cx="27" cy="53" r="7" fill="#2D2F33"/>
<path fill-rule="evenodd" clip-rule="evenodd" d="M53.4879 39C53.8195 38.0617 54 37.0519 54 36C54 34.9481 53.8195 33.9383 53.4879 33H62V39H53.4879ZM36.5121 39H10V33H36.5121C36.1805 33.9383 36 34.9481 36 36C36 37.0519 36.1805 38.0617 36.5121 39Z" fill="#2D2F33"/>
<circle cx="45" cy="36" r="7" fill="#2D2F33"/>
<path fill-rule="evenodd" clip-rule="evenodd" d="M36.4879 22C36.8195 21.0617 37 20.0519 37 19C37 17.9481 36.8195 16.9383 36.4879 16H62V22H36.4879ZM19.5121 22H10V16H19.5121C19.1805 16.9383 19 17.9481 19 19C19 20.0519 19.1805 21.0617 19.5121 22Z" fill="#2D2F33"/>
<circle cx="28" cy="19" r="7" fill="#2D2F33"/>
</svg>
