<svg width="12" height="12" viewBox="0 0 12 12" fill="none" xmlns="http://www.w3.org/2000/svg">
<path d="M5.43693 6.59627H0.0332031C0.0699295 6.98805 0.146577 7.37506 0.261952 7.75127H3.46444L1.37945 9.83626C1.62315 10.1361 1.89709 10.4101 2.19694 10.6538L4.28194 8.56876V11.7713C4.65814 11.8866 5.04515 11.9633 5.43693 12V6.59627ZM11.9994 6.59627H6.59568V12C6.98746 11.9633 7.37447 11.8866 7.75067 11.7713V7.75127H10.5332C10.3059 8.33821 9.9672 8.8756 9.53567 9.33376V10.875C10.5952 10.104 11.3745 9.00871 11.7557 7.75502V7.73252C11.7782 7.66127 11.7969 7.58627 11.8157 7.51127C11.817 7.49129 11.817 7.47125 11.8157 7.45127C11.8382 7.36877 11.8532 7.29002 11.8719 7.21127V7.14377C11.8719 7.07627 11.8982 7.00877 11.9094 6.93752C11.9078 6.91755 11.9078 6.89749 11.9094 6.87752C11.9094 6.81377 11.9282 6.75002 11.9357 6.68627C11.9542 6.65442 11.9755 6.6243 11.9994 6.59627ZM6.03318 4.54455e-05C4.5294 -0.00580417 3.07824 0.553248 1.96707 1.5665C0.85589 2.57976 0.165714 3.97333 0.0332031 5.47127H4.12069L4.76569 4.32003H1.46945C1.57004 4.04299 1.69556 3.77565 1.84445 3.52128H5.21943L5.86443 2.36629H2.81194C3.6966 1.58514 4.83613 1.15405 6.01631 1.15405C7.19648 1.15405 8.33601 1.58514 9.22067 2.36629H6.17568L6.82068 3.52128H10.1957C10.3444 3.77571 10.47 4.04304 10.5707 4.32003H7.27068L7.90817 5.47127H11.9957C11.8637 3.97978 11.1789 2.59152 10.0756 1.57918C8.97238 0.566834 7.5305 0.00357863 6.03318 4.54455e-05Z" fill="#0450F2"/>
</svg>
