<svg width="20" height="20" viewBox="0 0 20 20" fill="none" xmlns="http://www.w3.org/2000/svg">
<g opacity="0.22" clip-path="url(#clip0_346_8777)">
<path d="M9.55163 0.908493C9.73504 0.53687 10.265 0.53687 10.4484 0.908493L12.8226 5.71919C12.8954 5.86677 13.0362 5.96905 13.1991 5.99271L18.508 6.76415C18.9181 6.82374 19.0818 7.32772 18.7851 7.61699L14.9435 11.3616C14.8257 11.4765 14.7719 11.642 14.7997 11.8042L15.7066 17.0916C15.7766 17.5001 15.3479 17.8116 14.9811 17.6187L10.2327 15.1223C10.087 15.0457 9.91299 15.0457 9.76733 15.1223L5.01888 17.6187C4.65207 17.8116 4.22335 17.5001 4.29341 17.0916L5.20028 11.8042C5.2281 11.642 5.17433 11.4765 5.05648 11.3616L1.21491 7.61699C0.918151 7.32772 1.08191 6.82374 1.49202 6.76415L6.80094 5.99271C6.9638 5.96905 7.10458 5.86677 7.17741 5.71919L9.55163 0.908493Z" fill="white"/>
</g>
<defs>
<clipPath id="clip0_346_8777">
<rect width="20" height="20" fill="white"/>
</clipPath>
</defs>
</svg>
