<svg width="16" height="16" viewBox="0 0 16 16" fill="none" xmlns="http://www.w3.org/2000/svg">
<g clip-path="url(#clip0_502_6373)">
<path d="M10.3539 4.69921L11.7681 6.11342L14.8746 6.10871C14.9626 6.10835 15.0498 6.12541 15.1312 6.15893C15.2126 6.19244 15.2865 6.24173 15.3488 6.30396C15.411 6.36619 15.4603 6.44013 15.4938 6.52151C15.5273 6.60289 15.5444 6.69009 15.544 6.7781L15.5393 9.21526C15.5388 9.39139 15.4686 9.56015 15.344 9.68468C15.2195 9.80922 15.0507 9.87942 14.8746 9.87994L12.7109 9.88466L8.93964 6.11342L7.99683 7.05623C7.87181 7.18125 7.70224 7.25149 7.52543 7.25149C7.34862 7.25149 7.17905 7.18125 7.05402 7.05623C6.929 6.9312 6.85876 6.76164 6.85876 6.58482C6.85876 6.40801 6.929 6.23844 7.05402 6.11342L8.46824 4.69921C8.71829 4.44916 9.05742 4.30868 9.41105 4.30868C9.76467 4.30868 10.1038 4.44916 10.3539 4.69921ZM5.16841 4.2278L3.28279 6.11342L1.12375 6.11342C0.947631 6.11394 0.778871 6.18414 0.654333 6.30868C0.529795 6.43322 0.459598 6.60198 0.459073 6.7781L0.45436 9.21526C0.453999 9.30327 0.471067 9.39048 0.504579 9.47185C0.538092 9.55323 0.587386 9.62717 0.649617 9.6894C0.711848 9.75163 0.785784 9.80092 0.867162 9.83444C0.948539 9.86795 1.03575 9.88502 1.12375 9.88466L5.16841 9.88466L7.05402 11.7703C7.17905 11.8953 7.34862 11.9655 7.52543 11.9655C7.70224 11.9655 7.87181 11.8953 7.99683 11.7703L8.46824 11.2989L8.93964 11.7703C9.06467 11.8953 9.23424 11.9655 9.41105 11.9655C9.58786 11.9655 9.75743 11.8953 9.88245 11.7703L10.3539 11.2989L10.8253 11.7703C10.9503 11.8953 11.1199 11.9655 11.2967 11.9655C11.4735 11.9655 11.643 11.8953 11.7681 11.7703L12.2395 11.2989L8.93964 7.99904L8.46824 8.47044C8.21819 8.72049 7.87905 8.86097 7.52543 8.86097C7.17181 8.86097 6.83267 8.72049 6.58262 8.47044L5.63981 7.52763C5.38976 7.27759 5.24929 6.93845 5.24929 6.58482C5.24929 6.2312 5.38976 5.89206 5.63981 5.64202L7.05402 4.2278L5.16841 4.2278Z" fill="white"/>
</g>
<defs>
<clipPath id="clip0_502_6373">
<rect width="16" height="16" fill="white"/>
</clipPath>
</defs>
</svg>
