<svg width="16" height="16" viewBox="0 0 16 16" fill="none" xmlns="http://www.w3.org/2000/svg">
<path d="M10.5873 7.00008L11.6673 8.08008V10.3334H9.66732V7.00008H10.5873ZM14.6673 5.33341V12.0001C14.6673 12.7334 14.0673 13.3334 13.334 13.3334H2.66732C1.93398 13.3334 1.33398 12.7334 1.33398 12.0001L1.34065 4.00008C1.34065 3.26675 1.93398 2.66675 2.66732 2.66675H6.66732L8.00065 4.00008H13.334C14.0673 4.00008 14.6673 4.60008 14.6673 5.33341ZM12.6673 7.66675L11.0007 6.00008H8.66732V11.3334H12.6673V7.66675Z" fill="#1E2024"/>
<path fill-rule="evenodd" clip-rule="evenodd" d="M12.6673 7.66675L11.0007 6.00008H8.66732V11.3334H12.6673V7.66675ZM11.6673 8.08008L10.5873 7.00008H9.66732V10.3334H11.6673V8.08008Z" fill="#1E2024"/>
</svg>
