<svg width="396" height="425" viewBox="0 0 396 425" fill="none" xmlns="http://www.w3.org/2000/svg">
<mask id="mask0_346_8703" style="mask-type:alpha" maskUnits="userSpaceOnUse" x="54" y="68" width="288" height="289">
<ellipse cx="197.998" cy="212.285" rx="143.727" ry="143.819" fill="#D9D9D9"/>
</mask>
<g mask="url(#mask0_346_8703)">
<path d="M54.2715 59.7793V387.716M61.2825 59.7793V387.716M68.2936 59.7793V387.716M75.3047 59.7793V387.716M82.3157 59.7793V387.716M89.3268 59.7793V387.716M96.3379 59.7793V387.716M103.349 59.7793V387.716M110.36 59.7793V387.716M117.371 59.7793V387.716M124.382 59.7793V387.716M131.393 59.7793V387.716M138.404 59.7793V387.716M145.415 59.7793V387.716M152.426 59.7793V387.716M159.437 59.7793V387.716M166.449 59.7793V387.716M173.46 59.7793V387.716M180.471 59.7793V387.716M187.482 59.7793V387.716M194.493 59.7793V387.716M201.504 59.7793V387.716M208.515 59.7793V387.716M215.526 59.7793V387.716M222.537 59.7793V387.716M229.548 59.7793V387.716M236.559 59.7793V387.716M243.57 59.7793V387.716M250.581 59.7793V387.716M257.592 59.7793V387.716M264.603 59.7793V387.716M271.615 59.7793V387.716M278.626 59.7793V387.716M285.637 59.7793V387.716M292.648 59.7793V387.716M299.659 59.7793V387.716M306.67 59.7793V387.716M313.681 59.7793V387.716M320.692 59.7793V387.716M327.703 59.7793V387.716M334.714 59.7793V387.716M341.725 59.7793V387.716" stroke="#1E2024" stroke-width="0.88085"/>
</g>
<mask id="mask1_346_8703" style="mask-type:alpha" maskUnits="userSpaceOnUse" x="85" y="99" width="226" height="227">
<ellipse cx="198" cy="212.286" rx="112.859" ry="112.932" fill="#D9D9D9"/>
</mask>
<g mask="url(#mask1_346_8703)">
<path d="M55.2383 59.7795V387.716M62.1906 59.7796V387.716M69.1428 59.7795V387.716M76.095 59.7795V387.716M83.0473 59.7795V387.716M89.9994 59.7796V387.716M96.9518 59.7795V387.716M103.904 59.7795V387.716M110.856 59.7796V387.716M117.808 59.7795V387.716M124.761 59.7795V387.716M131.713 59.7795V387.716M138.665 59.7795V387.716M145.617 59.7795V387.716M152.57 59.7795V387.716M159.522 59.7796V387.716M166.474 59.7795V387.716M173.426 59.7795V387.716M180.379 59.7796V387.716M187.331 59.7795V387.716M194.283 59.7795V387.716M201.235 59.7795V387.716M208.188 59.7796V387.716M215.14 59.7795V387.716M222.092 59.7795V387.716M229.045 59.7796V387.716M235.997 59.7795V387.716M242.949 59.7795V387.716M249.901 59.7795V387.716M256.853 59.7796V387.716M263.806 59.7795V387.716M270.758 59.7795V387.716M277.71 59.7796V387.716M284.662 59.7795V387.716M291.615 59.7795V387.716M298.567 59.7795V387.716M305.519 59.7795V387.716M312.471 59.7795V387.716M319.424 59.7795V387.716M326.376 59.7796V387.716M333.328 59.7795V387.716M340.28 59.7795V387.716" stroke="#1E2024" stroke-width="1.7617"/>
</g>
<mask id="mask2_346_8703" style="mask-type:alpha" maskUnits="userSpaceOnUse" x="137" y="151" width="122" height="122">
<ellipse cx="197.999" cy="212.286" rx="60.2881" ry="60.3268" fill="#D9D9D9"/>
</mask>
<g mask="url(#mask2_346_8703)">
<path d="M58.6133 59.7795V387.716M65.4008 59.7795V387.716M72.1884 59.7795V387.716M78.976 59.7795V387.716M85.7635 59.7795V387.716M92.5511 59.7795V387.716M99.3386 59.7795V387.716M106.126 59.7796V387.716M112.914 59.7795V387.716M119.701 59.7796V387.716M126.489 59.7795V387.716M133.276 59.7796V387.716M140.064 59.7795V387.716M146.852 59.7796V387.716M153.639 59.7795V387.716M160.427 59.7795V387.716M167.214 59.7795V387.716M174.002 59.7795V387.716M180.789 59.7795V387.716M187.577 59.7795V387.716M194.364 59.7796V387.716M201.152 59.7795V387.716M207.94 59.7796V387.716M214.727 59.7795V387.716M221.515 59.7796V387.716M228.302 59.7795V387.716M235.09 59.7796V387.716M241.877 59.7795V387.716M248.665 59.7795V387.716M255.452 59.7795V387.716M262.24 59.7795V387.716M269.028 59.7795V387.716M275.815 59.7795V387.716M282.603 59.7795V387.716M289.39 59.7795V387.716M296.178 59.7796V387.716M302.965 59.7795V387.716M309.753 59.7796V387.716M316.54 59.7795V387.716M323.328 59.7796V387.716M330.116 59.7795V387.716M336.903 59.7795V387.716" stroke="#1E2024" stroke-width="3.01738"/>
</g>
</svg>
