<svg width="226" height="56" viewBox="0 0 226 56" fill="none" xmlns="http://www.w3.org/2000/svg">
<path fill-rule="evenodd" clip-rule="evenodd" d="M0 28C0 12.536 12.6027 0 28.1489 0C35.5972 0 42.3698 2.87751 47.4044 7.57591C47.4736 7.64041 47.5423 7.70524 47.6108 7.77042C49.9232 9.78816 52.9169 11.0124 56.2979 11.0124C59.6788 11.0124 62.6726 9.78816 64.9849 7.77042C65.0534 7.70525 65.1222 7.64041 65.1913 7.57591C70.226 2.87751 76.9986 0 84.4468 0C99.993 0 112.596 12.536 112.596 28H56.2979H0Z" fill="#FFD954"/>
<path fill-rule="evenodd" clip-rule="evenodd" d="M0 28C0 43.464 12.6027 56 28.1489 56C35.5972 56 42.3698 53.1225 47.4044 48.4241C47.4736 48.3596 47.5423 48.2948 47.6108 48.2296C49.9232 46.2118 52.9169 44.9876 56.2979 44.9876C59.6788 44.9876 62.6726 46.2118 64.9849 48.2296C65.0534 48.2948 65.1222 48.3596 65.1913 48.4241C70.226 53.1225 76.9986 56 84.4468 56C99.993 56 112.596 43.464 112.596 28H56.2979H0Z" fill="#FFD954"/>
<path fill-rule="evenodd" clip-rule="evenodd" d="M112.596 28C112.596 12.536 125.198 0 140.745 0C148.193 0 154.965 2.87751 160 7.57591C160.069 7.64041 160.138 7.70524 160.206 7.77042C162.519 9.78816 165.513 11.0124 168.894 11.0124C172.275 11.0124 175.268 9.78816 177.581 7.77042C177.649 7.70525 177.718 7.64041 177.787 7.57591C182.822 2.87751 189.594 0 197.043 0C212.589 0 225.191 12.536 225.191 28H168.894H112.596Z" fill="#FFD954"/>
<path fill-rule="evenodd" clip-rule="evenodd" d="M112.596 28C112.596 43.464 125.198 56 140.745 56C148.193 56 154.965 53.1225 160 48.4241C160.069 48.3596 160.138 48.2948 160.206 48.2296C162.519 46.2118 165.513 44.9876 168.894 44.9876C172.275 44.9876 175.268 46.2118 177.581 48.2296C177.649 48.2948 177.718 48.3596 177.787 48.4241C182.822 53.1225 189.594 56 197.043 56C212.589 56 225.191 43.464 225.191 28H168.894H112.596Z" fill="#FFD954"/>
<path fill-rule="evenodd" clip-rule="evenodd" d="M56.334 28C56.334 12.536 68.9367 0 84.4829 0C91.9312 0 98.7038 2.87751 103.738 7.57591C103.808 7.64041 103.876 7.70524 103.945 7.77042C106.257 9.78816 109.251 11.0124 112.632 11.0124C116.013 11.0124 119.007 9.78816 121.319 7.77042C121.387 7.70525 121.456 7.64041 121.525 7.57591C126.56 2.87751 133.333 0 140.781 0C156.327 0 168.93 12.536 168.93 28H112.632H56.334Z" fill="#FFD954"/>
<path fill-rule="evenodd" clip-rule="evenodd" d="M56.334 28C56.334 43.464 68.9367 56 84.4829 56C91.9312 56 98.7038 53.1225 103.738 48.4241C103.808 48.3596 103.876 48.2948 103.945 48.2296C106.257 46.2118 109.251 44.9876 112.632 44.9876C116.013 44.9876 119.007 46.2118 121.319 48.2296C121.387 48.2948 121.456 48.3596 121.525 48.4241C126.56 53.1225 133.333 56 140.781 56C156.327 56 168.93 43.464 168.93 28H112.632H56.334Z" fill="#FFD954"/>
<circle cx="27.334" cy="28" r="6" fill="#1E2024"/>
<circle cx="84.334" cy="28" r="6" fill="#1E2024"/>
<circle cx="141.334" cy="28" r="6" fill="#1E2024"/>
<circle cx="198.334" cy="28" r="6" fill="#1E2024"/>
</svg>
